<svg xmlns="http://www.w3.org/2000/svg" viewBox="0 0 964.22 328" width="964.22" height="328" role="img" aria-label="Schutzraum"><rect width="964.22" height="328" fill="#ffffff"/><rect x="40" y="40" width="884.22" height="204" fill="#eef0f3"/><rect x="82" y="82" width="800.22" height="120" fill="#ffffff"/><rect x="40" y="40" width="42" height="42" fill="none" stroke="#7f8083" stroke-width="1.5" stroke-dasharray="4 3"/><rect x="882.22" y="40" width="42" height="42" fill="none" stroke="#7f8083" stroke-width="1.5" stroke-dasharray="4 3"/><rect x="40" y="202" width="42" height="42" fill="none" stroke="#7f8083" stroke-width="1.5" stroke-dasharray="4 3"/><rect x="882.22" y="202" width="42" height="42" fill="none" stroke="#7f8083" stroke-width="1.5" stroke-dasharray="4 3"/><g transform="translate(70 70) scale(3)"><g><path fill="#1d5641" d="M12 4H36A8 8 0 0 1 44 12V36A8 8 0 0 1 36 44H12A8 8 0 0 1 4 36V12A8 8 0 0 1 12 4ZM11 8A3 3 0 0 0 8 11V19A3 3 0 0 0 11 22H19A3 3 0 0 0 22 19V11A3 3 0 0 0 19 8ZM29 8A3 3 0 0 0 26 11V19A3 3 0 0 0 29 22H37A3 3 0 0 0 40 19V11A3 3 0 0 0 37 8ZM11 26A3 3 0 0 0 8 29V37A3 3 0 0 0 11 40H19A3 3 0 0 0 22 37V29A3 3 0 0 0 19 26ZM29 26A3 3 0 0 0 26 29V37A3 3 0 0 0 29 40H37A3 3 0 0 0 40 37V29A3 3 0 0 0 37 26Z"/><path fill="#1d5641" d="M30.5 11H35.5A1.5 1.5 0 0 1 37 12.5V17.5A1.5 1.5 0 0 1 35.5 19H30.5A1.5 1.5 0 0 1 29 17.5V12.5A1.5 1.5 0 0 1 30.5 11Z"/></g><g transform="translate(55.39 33.75)"><path fill="#1d5641" d="M9.22 0.35Q7.04 0.35 5.21 -0.31Q3.37 -0.98 2.16 -2.34Q0.95 -3.71 0.61 -5.81L4.97 -6.69Q5.08 -4.85 6.13 -3.95Q7.18 -3.05 9.13 -3.05Q10.41 -3.05 11.18 -3.39Q11.94 -3.72 12.28 -4.29Q12.62 -4.85 12.62 -5.53Q12.62 -6.61 11.82 -7.18Q11.01 -7.76 9.71 -8.02L7.75 -8.4Q6.73 -8.59 5.65 -8.92Q4.56 -9.25 3.64 -9.87Q2.71 -10.48 2.13 -11.48Q1.56 -12.47 1.56 -13.97Q1.56 -15.88 2.54 -17.2Q3.52 -18.51 5.21 -19.18Q6.89 -19.85 9.03 -19.85Q11.12 -19.85 12.78 -19.22Q14.44 -18.58 15.52 -17.37Q16.6 -16.16 16.95 -14.41L12.68 -13.53Q12.55 -14.42 12.18 -15.08Q11.81 -15.74 11.09 -16.09Q10.37 -16.45 9.18 -16.45Q8.12 -16.45 7.4 -16.17Q6.68 -15.88 6.3 -15.39Q5.93 -14.9 5.93 -14.23Q5.93 -13.27 6.86 -12.75Q7.79 -12.23 9.41 -11.92L11.43 -11.51Q12.84 -11.24 14.14 -10.61Q15.44 -9.98 16.26 -8.82Q17.09 -7.65 17.09 -5.77Q17.09 -3.79 16.09 -2.42Q15.09 -1.06 13.32 -0.35Q11.55 0.35 9.22 0.35ZM23.77 0Q22.15 0 21.27 -0.79Q20.4 -1.58 20.4 -3.07V-11.67H18.32V-14.62H20.4V-17.5L24.44 -18.47V-14.62H27.14V-11.67H24.44V-3.71Q24.44 -3.26 24.56 -3.11Q24.69 -2.95 25.11 -2.95H27.35V0ZM34.49 0.35Q32.8 0.35 31.71 -0.42Q30.62 -1.19 30.09 -2.56Q29.56 -3.93 29.56 -5.71V-14.62H33.6V-6.19Q33.6 -4.41 34.21 -3.55Q34.82 -2.69 36.1 -2.69Q36.86 -2.69 37.54 -3.09Q38.23 -3.49 38.66 -4.43Q39.1 -5.36 39.1 -6.97V-14.62H43.13V0H39.23V-3.43L39.33 -2.83Q38.68 -1.34 37.45 -0.49Q36.22 0.35 34.49 0.35ZM46.54 0V-14.62H50.44V-11.25L50.34 -11.86Q51.01 -13.31 52.22 -14.14Q53.44 -14.98 55.16 -14.98Q56.87 -14.98 57.96 -14.21Q59.05 -13.43 59.58 -12.07Q60.11 -10.7 60.11 -8.91V0H56.07V-8.65Q56.07 -10.21 55.56 -11.07Q55.04 -11.93 53.77 -11.93Q52.26 -11.93 51.42 -10.64Q50.57 -9.36 50.57 -6.7V0ZM68.55 0.35Q66.72 0.35 65.37 -0.57Q64.01 -1.49 63.28 -3.21Q62.55 -4.93 62.55 -7.34Q62.55 -9.75 63.29 -11.46Q64.03 -13.18 65.38 -14.08Q66.73 -14.98 68.62 -14.98Q70.23 -14.98 71.49 -14.23Q72.76 -13.49 73.56 -11.78L73.14 -11.75V-20.31H77.18V0H73.36V-2.94L73.4 -2.74Q72.67 -1.15 71.41 -0.4Q70.15 0.35 68.55 0.35ZM70.03 -2.69Q70.97 -2.69 71.72 -3.2Q72.46 -3.7 72.9 -4.73Q73.34 -5.76 73.34 -7.29Q73.34 -9.6 72.39 -10.77Q71.45 -11.93 70.05 -11.93Q68.59 -11.93 67.7 -10.7Q66.82 -9.47 66.82 -7.26Q66.82 -5.11 67.68 -3.9Q68.54 -2.69 70.03 -2.69ZM87.28 0.35Q85.13 0.35 83.42 -0.58Q81.71 -1.52 80.71 -3.24Q79.71 -4.97 79.71 -7.33Q79.71 -9.67 80.7 -11.39Q81.68 -13.11 83.38 -14.04Q85.08 -14.98 87.26 -14.98Q88.46 -14.98 89.7 -14.61Q90.94 -14.25 91.98 -13.32Q93.03 -12.39 93.66 -10.73Q94.3 -9.07 94.3 -6.5H82.3V-8.8H90.7L90.28 -8.08Q90.17 -9.55 89.74 -10.44Q89.3 -11.33 88.64 -11.74Q87.97 -12.15 87.15 -12.15Q86.08 -12.15 85.36 -11.54Q84.64 -10.93 84.28 -9.84Q83.93 -8.75 83.93 -7.31Q83.93 -5.15 84.75 -3.89Q85.56 -2.63 87.26 -2.63Q88.35 -2.63 89.15 -3.2Q89.94 -3.76 90.36 -4.93L94.01 -3.99Q93.5 -2.48 92.46 -1.52Q91.41 -0.56 90.07 -0.1Q88.72 0.35 87.28 0.35ZM96.88 0V-14.62H100.78V-11.25L100.68 -11.86Q101.35 -13.31 102.57 -14.14Q103.78 -14.98 105.5 -14.98Q107.21 -14.98 108.3 -14.21Q109.39 -13.43 109.92 -12.07Q110.45 -10.7 110.45 -8.91V0H106.41V-8.65Q106.41 -10.21 105.9 -11.07Q105.38 -11.93 104.11 -11.93Q102.61 -11.93 101.76 -10.64Q100.91 -9.36 100.91 -6.7V0ZM113.72 5.28V-14.62H117.54V-11.69L117.5 -11.9Q118.25 -13.5 119.52 -14.24Q120.79 -14.98 122.36 -14.98Q124.2 -14.98 125.55 -14.06Q126.89 -13.15 127.63 -11.42Q128.36 -9.7 128.36 -7.29Q128.36 -4.88 127.62 -3.16Q126.88 -1.45 125.52 -0.55Q124.16 0.35 122.29 0.35Q120.66 0.35 119.4 -0.4Q118.13 -1.15 117.35 -2.84L117.73 -2.87V5.28ZM120.85 -2.69Q122.33 -2.69 123.21 -3.93Q124.09 -5.17 124.09 -7.37Q124.09 -9.53 123.23 -10.73Q122.37 -11.93 120.88 -11.93Q119.95 -11.93 119.2 -11.43Q118.44 -10.93 118 -9.91Q117.56 -8.88 117.56 -7.34Q117.56 -5.02 118.51 -3.86Q119.46 -2.69 120.85 -2.69ZM134.19 0Q132.56 0 131.69 -0.79Q130.81 -1.58 130.81 -3.07V-20.31H134.85V-3.71Q134.85 -3.26 134.98 -3.11Q135.11 -2.95 135.53 -2.95H136.65V0ZM143.14 0.35Q141.75 0.35 140.57 -0.14Q139.39 -0.64 138.68 -1.61Q137.97 -2.59 137.97 -4.05Q137.97 -5.62 138.88 -6.72Q139.79 -7.81 141.52 -8.39Q143.25 -8.96 145.7 -8.96H147.76L147.52 -8.6V-9.44Q147.52 -10.89 146.99 -11.6Q146.46 -12.31 145.24 -12.31Q144.08 -12.31 143.46 -11.69Q142.85 -11.08 142.71 -9.94L138.59 -10.64Q138.82 -11.86 139.64 -12.84Q140.46 -13.83 141.91 -14.41Q143.36 -14.99 145.47 -14.99Q147.41 -14.99 148.75 -14.37Q150.09 -13.76 150.79 -12.38Q151.49 -11 151.49 -8.68V-3.71Q151.49 -3.25 151.61 -3.1Q151.74 -2.95 152.16 -2.95H152.83V0H150.9Q149.32 0 148.5 -0.79Q147.68 -1.58 147.68 -3.07V-3.76L148.39 -3.49Q148.21 -2.91 147.87 -2.25Q147.53 -1.58 146.93 -1Q146.33 -0.41 145.41 -0.03Q144.49 0.35 143.14 0.35ZM144.31 -2.41Q145.26 -2.41 145.99 -2.84Q146.72 -3.28 147.14 -4.15Q147.56 -5.02 147.56 -6.32V-6.64H145.85Q144.4 -6.64 143.6 -6.26Q142.79 -5.88 142.47 -5.33Q142.14 -4.78 142.14 -4.27Q142.14 -3.86 142.34 -3.43Q142.54 -2.99 143 -2.7Q143.47 -2.41 144.31 -2.41ZM155.26 0V-14.62H159.16V-11.25L159.06 -11.86Q159.73 -13.31 160.95 -14.14Q162.16 -14.98 163.88 -14.98Q165.59 -14.98 166.68 -14.21Q167.77 -13.43 168.3 -12.07Q168.83 -10.7 168.83 -8.91V0H164.79V-8.65Q164.79 -10.21 164.28 -11.07Q163.76 -11.93 162.49 -11.93Q160.99 -11.93 160.14 -10.64Q159.29 -9.36 159.29 -6.7V0ZM172.1 0V-14.62H176V-11.25L175.9 -11.86Q176.57 -13.31 177.78 -14.14Q179 -14.98 180.72 -14.98Q182.43 -14.98 183.52 -14.21Q184.61 -13.43 185.14 -12.07Q185.67 -10.7 185.67 -8.91V0H181.63V-8.65Q181.63 -10.21 181.12 -11.07Q180.6 -11.93 179.33 -11.93Q177.83 -11.93 176.98 -10.64Q176.13 -9.36 176.13 -6.7V0ZM195.6 0.35Q193.45 0.35 191.73 -0.58Q190.02 -1.52 189.02 -3.24Q188.03 -4.97 188.03 -7.33Q188.03 -9.67 189.01 -11.39Q189.99 -13.11 191.69 -14.04Q193.39 -14.98 195.57 -14.98Q196.78 -14.98 198.02 -14.61Q199.26 -14.25 200.3 -13.32Q201.34 -12.39 201.98 -10.73Q202.61 -9.07 202.61 -6.5H190.62V-8.8H199.01L198.59 -8.08Q198.48 -9.55 198.05 -10.44Q197.62 -11.33 196.95 -11.74Q196.29 -12.15 195.46 -12.15Q194.39 -12.15 193.68 -11.54Q192.96 -10.93 192.6 -9.84Q192.24 -8.75 192.24 -7.31Q192.24 -5.15 193.06 -3.89Q193.88 -2.63 195.57 -2.63Q196.67 -2.63 197.46 -3.2Q198.25 -3.76 198.67 -4.93L202.33 -3.99Q201.81 -2.48 200.77 -1.52Q199.73 -0.56 198.38 -0.1Q197.03 0.35 195.6 0.35ZM205.19 0V-14.62H209.09V-11.33L208.93 -11.77Q209.62 -13.39 210.88 -14.18Q212.14 -14.98 213.63 -14.98Q214.05 -14.98 214.48 -14.91Q214.92 -14.84 215.35 -14.68L215.04 -11.24Q214.16 -11.48 213.35 -11.48Q212.68 -11.48 211.96 -11.25Q211.23 -11.02 210.62 -10.45Q210 -9.87 209.61 -8.82Q209.23 -7.77 209.23 -6.15V0Z"/></g></g><path fill="#545557" transform="translate(39.54 300)" d="M0.46 0 4.8 -5.83 0.83 -11.25H3.25L6.16 -7.11L8.97 -11.25H11.5L7.35 -5.77L11.71 0H9.09L6.03 -4.34L2.93 0ZM18.74 -8.35V-10.22H29.53V-8.35ZM18.74 -4V-5.88H29.53V-4ZM42.43 0.26Q40.8 0.26 39.59 -0.46Q38.39 -1.19 37.71 -2.51Q37.04 -3.82 37.04 -5.62Q37.04 -7.43 37.71 -8.74Q38.38 -10.06 39.57 -10.79Q40.77 -11.51 42.36 -11.51Q43.27 -11.51 44.19 -11.22Q45.1 -10.94 45.86 -10.23Q46.62 -9.52 47.08 -8.29Q47.54 -7.05 47.54 -5.16H38.41V-6.67H45.69L45.23 -6.04Q45.18 -7.42 44.78 -8.26Q44.38 -9.09 43.73 -9.47Q43.09 -9.85 42.32 -9.85Q41.38 -9.85 40.7 -9.35Q40.03 -8.84 39.68 -7.9Q39.32 -6.95 39.32 -5.6Q39.32 -3.62 40.12 -2.53Q40.92 -1.43 42.42 -1.43Q43.48 -1.43 44.21 -1.96Q44.94 -2.5 45.29 -3.53L47.3 -2.92Q46.9 -1.89 46.19 -1.18Q45.48 -0.47 44.52 -0.1Q43.56 0.26 42.43 0.26ZM50.08 0V-11.25H52.2V0ZM51.15 -12.99Q50.45 -12.99 49.98 -13.45Q49.52 -13.92 49.52 -14.6Q49.52 -15.31 49.98 -15.77Q50.45 -16.23 51.15 -16.23Q51.84 -16.23 52.31 -15.77Q52.77 -15.31 52.77 -14.6Q52.77 -13.92 52.31 -13.45Q51.84 -12.99 51.15 -12.99ZM55.45 0V-11.25H57.46V-8.7L57.39 -9.16Q57.85 -10.17 58.81 -10.84Q59.77 -11.51 61.15 -11.51Q62.38 -11.51 63.23 -10.96Q64.08 -10.41 64.54 -9.41Q64.99 -8.41 64.99 -7.02V0H62.88V-6.86Q62.88 -8.21 62.35 -9.01Q61.83 -9.81 60.61 -9.81Q59.28 -9.81 58.42 -8.76Q57.56 -7.71 57.56 -5.69V0ZM73.23 0V-15H83.07V-13.14H75.47V-8.9H82.27V-7.03H75.47V0ZM89.34 0.26Q87.72 0.26 86.51 -0.46Q85.3 -1.19 84.63 -2.51Q83.96 -3.82 83.96 -5.62Q83.96 -7.43 84.62 -8.74Q85.29 -10.06 86.49 -10.79Q87.69 -11.51 89.28 -11.51Q90.19 -11.51 91.1 -11.22Q92.02 -10.94 92.78 -10.23Q93.54 -9.52 94 -8.29Q94.46 -7.05 94.46 -5.16H85.32V-6.67H92.6L92.15 -6.04Q92.09 -7.42 91.69 -8.26Q91.29 -9.09 90.65 -9.47Q90.01 -9.85 89.24 -9.85Q88.29 -9.85 87.62 -9.35Q86.95 -8.84 86.59 -7.9Q86.24 -6.95 86.24 -5.6Q86.24 -3.62 87.04 -2.53Q87.83 -1.43 89.33 -1.43Q90.4 -1.43 91.12 -1.96Q91.85 -2.5 92.21 -3.53L94.22 -2.92Q93.81 -1.89 93.1 -1.18Q92.4 -0.47 91.44 -0.1Q90.48 0.26 89.34 0.26ZM98.87 0Q98.05 0 97.51 -0.49Q96.96 -0.98 96.96 -1.78V-15.62H99.08V-2.25Q99.08 -1.91 99.18 -1.79Q99.28 -1.68 99.6 -1.68H100.64V0ZM106.61 0.26Q105.24 0.26 104.19 -0.46Q103.15 -1.18 102.57 -2.5Q102 -3.82 102 -5.64Q102 -7.46 102.58 -8.78Q103.16 -10.09 104.2 -10.8Q105.25 -11.51 106.64 -11.51Q107.77 -11.51 108.83 -10.95Q109.89 -10.39 110.45 -9.08L110.22 -9.01V-15.62H112.33V0H110.33V-2.32L110.39 -2.16Q109.9 -0.93 108.86 -0.33Q107.82 0.26 106.61 0.26ZM107.26 -1.45Q108.1 -1.45 108.79 -1.89Q109.48 -2.32 109.89 -3.24Q110.3 -4.17 110.3 -5.59Q110.3 -7.74 109.42 -8.78Q108.53 -9.81 107.28 -9.81Q105.96 -9.81 105.12 -8.71Q104.28 -7.61 104.28 -5.59Q104.28 -3.62 105.09 -2.54Q105.9 -1.45 107.26 -1.45ZM124.57 0.26Q123.2 0.26 122.15 -0.46Q121.1 -1.18 120.53 -2.5Q119.96 -3.82 119.96 -5.64Q119.96 -7.46 120.54 -8.78Q121.11 -10.09 122.16 -10.8Q123.21 -11.51 124.59 -11.51Q125.73 -11.51 126.79 -10.95Q127.84 -10.39 128.41 -9.08L128.18 -9.01V-15.62H130.29V0H128.29V-2.32L128.34 -2.16Q127.85 -0.93 126.82 -0.33Q125.78 0.26 124.57 0.26ZM125.22 -1.45Q126.06 -1.45 126.75 -1.89Q127.44 -2.32 127.85 -3.24Q128.26 -4.17 128.26 -5.59Q128.26 -7.74 127.38 -8.78Q126.49 -9.81 125.24 -9.81Q123.92 -9.81 123.08 -8.71Q122.24 -7.61 122.24 -5.59Q122.24 -3.62 123.05 -2.54Q123.85 -1.45 125.22 -1.45ZM138.22 0.26Q136.59 0.26 135.39 -0.46Q134.18 -1.19 133.51 -2.51Q132.83 -3.82 132.83 -5.62Q132.83 -7.43 133.5 -8.74Q134.17 -10.06 135.36 -10.79Q136.56 -11.51 138.16 -11.51Q139.06 -11.51 139.98 -11.22Q140.9 -10.94 141.66 -10.23Q142.42 -9.52 142.88 -8.29Q143.33 -7.05 143.33 -5.16H134.2V-6.67H141.48L141.02 -6.04Q140.97 -7.42 140.57 -8.26Q140.17 -9.09 139.53 -9.47Q138.89 -9.85 138.11 -9.85Q137.17 -9.85 136.49 -9.35Q135.82 -8.84 135.47 -7.9Q135.11 -6.95 135.11 -5.6Q135.11 -3.62 135.91 -2.53Q136.71 -1.43 138.21 -1.43Q139.27 -1.43 140 -1.96Q140.73 -2.5 141.08 -3.53L143.09 -2.92Q142.69 -1.89 141.98 -1.18Q141.27 -0.47 140.31 -0.1Q139.35 0.26 138.22 0.26ZM149.86 0.26Q148.62 0.26 147.59 -0.14Q146.56 -0.53 145.88 -1.34Q145.2 -2.15 144.98 -3.41L147.08 -3.81Q147.19 -2.59 147.92 -1.99Q148.66 -1.39 149.8 -1.39Q150.95 -1.39 151.59 -1.93Q152.23 -2.48 152.23 -3.25Q152.23 -3.92 151.77 -4.32Q151.3 -4.73 150.35 -4.9L149.08 -5.14Q148.52 -5.23 147.9 -5.41Q147.28 -5.59 146.74 -5.93Q146.21 -6.26 145.87 -6.81Q145.53 -7.36 145.53 -8.21Q145.53 -9.32 146.11 -10.05Q146.7 -10.77 147.68 -11.14Q148.67 -11.51 149.84 -11.51Q151.06 -11.51 152 -11.14Q152.94 -10.76 153.54 -10.06Q154.14 -9.35 154.32 -8.34L152.16 -7.91Q152.08 -8.49 151.83 -8.93Q151.58 -9.38 151.1 -9.62Q150.62 -9.88 149.84 -9.88Q148.93 -9.88 148.29 -9.49Q147.65 -9.11 147.65 -8.36Q147.65 -7.93 147.89 -7.62Q148.14 -7.31 148.6 -7.12Q149.07 -6.93 149.76 -6.78L151.08 -6.51Q151.97 -6.34 152.72 -5.99Q153.48 -5.65 153.94 -5.02Q154.41 -4.39 154.41 -3.35Q154.41 -2.22 153.82 -1.41Q153.24 -0.59 152.22 -0.17Q151.2 0.26 149.86 0.26ZM161.12 0V-1.43L169.89 -13.08H161.84V-15H172.67V-13.54L163.93 -1.92H172.72V0ZM179.06 0.26Q177.44 0.26 176.23 -0.46Q175.02 -1.19 174.35 -2.51Q173.68 -3.82 173.68 -5.62Q173.68 -7.43 174.34 -8.74Q175.01 -10.06 176.21 -10.79Q177.41 -11.51 179 -11.51Q179.91 -11.51 180.82 -11.22Q181.74 -10.94 182.5 -10.23Q183.26 -9.52 183.72 -8.29Q184.18 -7.05 184.18 -5.16H175.04V-6.67H182.32L181.86 -6.04Q181.81 -7.42 181.41 -8.26Q181.01 -9.09 180.37 -9.47Q179.73 -9.85 178.96 -9.85Q178.01 -9.85 177.34 -9.35Q176.67 -8.84 176.31 -7.9Q175.96 -6.95 175.96 -5.6Q175.96 -3.62 176.76 -2.53Q177.55 -1.43 179.05 -1.43Q180.11 -1.43 180.84 -1.96Q181.57 -2.5 181.93 -3.53L183.94 -2.92Q183.53 -1.89 182.82 -1.18Q182.11 -0.47 181.16 -0.1Q180.2 0.26 179.06 0.26ZM186.72 0V-11.25H188.83V0ZM187.78 -12.99Q187.08 -12.99 186.62 -13.45Q186.16 -13.92 186.16 -14.6Q186.16 -15.31 186.62 -15.77Q187.08 -16.23 187.78 -16.23Q188.48 -16.23 188.94 -15.77Q189.41 -15.31 189.41 -14.6Q189.41 -13.92 188.94 -13.45Q188.48 -12.99 187.78 -12.99ZM196.71 0.26Q195.07 0.26 193.88 -0.46Q192.68 -1.18 192.03 -2.5Q191.39 -3.82 191.39 -5.62Q191.39 -7.44 192.03 -8.76Q192.68 -10.07 193.87 -10.79Q195.06 -11.51 196.7 -11.51Q197.93 -11.51 198.92 -11.06Q199.91 -10.61 200.6 -9.77Q201.29 -8.92 201.59 -7.71L199.5 -7.2Q199.22 -8.48 198.51 -9.15Q197.79 -9.82 196.7 -9.82Q195.22 -9.82 194.44 -8.71Q193.67 -7.6 193.67 -5.61Q193.67 -3.62 194.44 -2.53Q195.22 -1.43 196.7 -1.43Q197.78 -1.43 198.49 -2.07Q199.21 -2.71 199.5 -3.95L201.56 -3.45Q201.32 -2.54 200.86 -1.85Q200.41 -1.17 199.78 -0.7Q199.15 -0.23 198.37 0.02Q197.59 0.26 196.71 0.26ZM203.98 0V-15.62H206.09V-8.6L205.92 -9.06Q206.37 -10.15 207.34 -10.83Q208.3 -11.51 209.7 -11.51Q210.92 -11.51 211.77 -10.96Q212.61 -10.41 213.07 -9.41Q213.52 -8.41 213.52 -7.02V0H211.41V-6.82Q211.41 -8.24 210.92 -9.03Q210.43 -9.81 209.16 -9.81Q207.76 -9.81 206.93 -8.8Q206.09 -7.79 206.09 -5.77V0ZM221.26 0.26Q219.64 0.26 218.43 -0.46Q217.22 -1.19 216.55 -2.51Q215.88 -3.82 215.88 -5.62Q215.88 -7.43 216.54 -8.74Q217.21 -10.06 218.41 -10.79Q219.6 -11.51 221.2 -11.51Q222.1 -11.51 223.02 -11.22Q223.94 -10.94 224.7 -10.23Q225.46 -9.52 225.92 -8.29Q226.38 -7.05 226.38 -5.16H217.24V-6.67H224.52L224.06 -6.04Q224.01 -7.42 223.61 -8.26Q223.21 -9.09 222.57 -9.47Q221.93 -9.85 221.16 -9.85Q220.21 -9.85 219.54 -9.35Q218.86 -8.84 218.51 -7.9Q218.16 -6.95 218.16 -5.6Q218.16 -3.62 218.95 -2.53Q219.75 -1.43 221.25 -1.43Q222.31 -1.43 223.04 -1.96Q223.77 -2.5 224.12 -3.53L226.14 -2.92Q225.73 -1.89 225.02 -1.18Q224.31 -0.47 223.35 -0.1Q222.4 0.26 221.26 0.26ZM228.91 0V-11.25H230.92V-8.7L230.84 -9.16Q231.31 -10.17 232.27 -10.84Q233.23 -11.51 234.6 -11.51Q235.83 -11.51 236.69 -10.96Q237.54 -10.41 237.99 -9.41Q238.45 -8.41 238.45 -7.02V0H236.33V-6.86Q236.33 -8.21 235.81 -9.01Q235.29 -9.81 234.07 -9.81Q232.74 -9.81 231.88 -8.76Q231.02 -7.71 231.02 -5.69V0ZM245.49 0.26Q244.25 0.26 243.22 -0.14Q242.19 -0.53 241.51 -1.34Q240.82 -2.15 240.6 -3.41L242.71 -3.81Q242.81 -2.59 243.55 -1.99Q244.28 -1.39 245.43 -1.39Q246.57 -1.39 247.21 -1.93Q247.85 -2.48 247.85 -3.25Q247.85 -3.92 247.39 -4.32Q246.93 -4.73 245.98 -4.9L244.71 -5.14Q244.15 -5.23 243.53 -5.41Q242.91 -5.59 242.37 -5.93Q241.83 -6.26 241.49 -6.81Q241.16 -7.36 241.16 -8.21Q241.16 -9.32 241.74 -10.05Q242.32 -10.77 243.31 -11.14Q244.29 -11.51 245.47 -11.51Q246.69 -11.51 247.62 -11.14Q248.56 -10.76 249.16 -10.06Q249.76 -9.35 249.95 -8.34L247.78 -7.91Q247.71 -8.49 247.46 -8.93Q247.21 -9.38 246.73 -9.62Q246.25 -9.88 245.47 -9.88Q244.55 -9.88 243.91 -9.49Q243.27 -9.11 243.27 -8.36Q243.27 -7.93 243.52 -7.62Q243.76 -7.31 244.23 -7.12Q244.7 -6.93 245.39 -6.78L246.71 -6.51Q247.59 -6.34 248.35 -5.99Q249.1 -5.65 249.57 -5.02Q250.03 -4.39 250.03 -3.35Q250.03 -2.22 249.45 -1.41Q248.86 -0.59 247.84 -0.17Q246.82 0.26 245.49 0.26ZM252.75 3.33 252.06 2.33 252.4 2.09Q253.01 1.65 253.29 1.23Q253.57 0.82 253.57 0.29V-0.18L253.86 0.23Q253.15 0.23 252.66 -0.24Q252.18 -0.72 252.18 -1.46Q252.18 -2.21 252.67 -2.69Q253.16 -3.18 253.88 -3.18Q254.33 -3.18 254.74 -2.96Q255.16 -2.75 255.42 -2.28Q255.68 -1.81 255.68 -1.04Q255.68 0.05 255.08 1.09Q254.49 2.14 253.33 2.94ZM263.55 0V-11.25H265.56V-8.82L265.49 -9.11Q266 -10.3 266.99 -10.91Q267.99 -11.51 269.05 -11.51Q269.35 -11.51 269.66 -11.46Q269.96 -11.41 270.23 -11.28L269.99 -9.35Q269.4 -9.54 268.81 -9.54Q268.42 -9.54 267.88 -9.39Q267.34 -9.24 266.84 -8.81Q266.34 -8.39 266.01 -7.56Q265.67 -6.73 265.67 -5.39V0ZM272.24 0V-11.25H274.35V0ZM273.3 -12.99Q272.6 -12.99 272.14 -13.45Q271.68 -13.92 271.68 -14.6Q271.68 -15.31 272.14 -15.77Q272.6 -16.23 273.3 -16.23Q274 -16.23 274.46 -15.77Q274.93 -15.31 274.93 -14.6Q274.93 -13.92 274.46 -13.45Q274 -12.99 273.3 -12.99ZM277.6 0V-11.25H279.61V-8.7L279.54 -9.16Q280.01 -10.17 280.97 -10.84Q281.93 -11.51 283.3 -11.51Q284.53 -11.51 285.39 -10.96Q286.24 -10.41 286.69 -9.41Q287.15 -8.41 287.15 -7.02V0H285.03V-6.86Q285.03 -8.21 284.51 -9.01Q283.99 -9.81 282.77 -9.81Q281.44 -9.81 280.58 -8.76Q279.72 -7.71 279.72 -5.69V0ZM294.47 4.32Q291.9 4.32 290.68 3.61Q289.46 2.91 289.46 1.43Q289.46 0.57 289.9 -0.06Q290.33 -0.7 291.32 -1.03Q290.93 -1.28 290.68 -1.68Q290.44 -2.07 290.44 -2.56Q290.44 -3.17 290.81 -3.63Q291.19 -4.09 291.89 -4.3Q291.05 -4.8 290.59 -5.64Q290.12 -6.47 290.12 -7.56Q290.12 -8.77 290.68 -9.66Q291.23 -10.54 292.25 -11.03Q293.27 -11.51 294.67 -11.51Q296.06 -11.51 297.09 -11.03Q298.11 -10.54 298.68 -9.65Q299.24 -8.76 299.24 -7.54Q299.24 -6.34 298.68 -5.47Q298.11 -4.59 297.08 -4.11Q296.05 -3.64 294.64 -3.64H293.73Q292.49 -3.64 292.49 -2.92Q292.49 -2.23 293.7 -2.23H295.96Q297.24 -2.23 298.05 -1.93Q298.86 -1.64 299.32 -1.15Q299.77 -0.67 299.95 -0.09Q300.12 0.48 300.12 1.04Q300.12 2.71 298.89 3.52Q297.65 4.32 295.05 4.32ZM294.49 2.76H295.06Q297.95 2.76 297.95 1.03Q297.95 0.32 297.43 -0.13Q296.92 -0.58 295.65 -0.58H293.83Q292.91 -0.58 292.26 -0.19Q291.6 0.2 291.6 1.09Q291.6 1.94 292.31 2.35Q293.01 2.76 294.49 2.76ZM294.67 -5.06Q295.88 -5.06 296.53 -5.7Q297.18 -6.34 297.18 -7.54Q297.18 -8.74 296.53 -9.4Q295.88 -10.06 294.67 -10.06Q293.47 -10.06 292.82 -9.41Q292.18 -8.75 292.18 -7.54Q292.18 -6.34 292.82 -5.7Q293.47 -5.06 294.67 -5.06ZM296.47 -10.21V-11.33Q296.47 -12.14 297.02 -12.62Q297.56 -13.1 298.39 -13.1H299.67V-11.43H298.52Q298.2 -11.43 298.1 -11.31Q298 -11.2 298 -10.85V-10.21ZM306.16 0.26Q304.92 0.26 303.89 -0.14Q302.85 -0.53 302.17 -1.34Q301.49 -2.15 301.27 -3.41L303.38 -3.81Q303.48 -2.59 304.21 -1.99Q304.95 -1.39 306.09 -1.39Q307.24 -1.39 307.88 -1.93Q308.52 -2.48 308.52 -3.25Q308.52 -3.92 308.06 -4.32Q307.59 -4.73 306.65 -4.9L305.38 -5.14Q304.81 -5.23 304.19 -5.41Q303.57 -5.59 303.04 -5.93Q302.5 -6.26 302.16 -6.81Q301.82 -7.36 301.82 -8.21Q301.82 -9.32 302.41 -10.05Q302.99 -10.77 303.97 -11.14Q304.96 -11.51 306.14 -11.51Q307.35 -11.51 308.29 -11.14Q309.23 -10.76 309.83 -10.06Q310.43 -9.35 310.61 -8.34L308.45 -7.91Q308.38 -8.49 308.12 -8.93Q307.88 -9.38 307.4 -9.62Q306.92 -9.88 306.14 -9.88Q305.22 -9.88 304.58 -9.49Q303.94 -9.11 303.94 -8.36Q303.94 -7.93 304.18 -7.62Q304.43 -7.31 304.9 -7.12Q305.36 -6.93 306.05 -6.78L307.38 -6.51Q308.26 -6.34 309.02 -5.99Q309.77 -5.65 310.23 -5.02Q310.7 -4.39 310.7 -3.35Q310.7 -2.22 310.11 -1.41Q309.53 -0.59 308.51 -0.17Q307.49 0.26 306.16 0.26ZM316.91 0.26Q315.7 0.26 314.84 -0.29Q313.98 -0.84 313.53 -1.85Q313.07 -2.85 313.07 -4.23V-11.25H315.19V-4.43Q315.19 -3.05 315.7 -2.24Q316.21 -1.44 317.46 -1.44Q318.35 -1.44 319.04 -1.9Q319.72 -2.36 320.11 -3.32Q320.5 -4.28 320.5 -5.75V-11.25H322.61V0H320.6V-2.65L320.68 -2.19Q320.22 -1.11 319.26 -0.43Q318.29 0.26 316.91 0.26ZM325.85 0V-11.25H327.86V-9.35Q328.29 -10.26 329.19 -10.89Q330.09 -11.51 331.33 -11.51Q332.47 -11.51 333.29 -10.91Q334.11 -10.3 334.51 -9.19Q335.07 -10.26 336 -10.89Q336.93 -11.51 338.12 -11.51Q339.76 -11.51 340.69 -10.33Q341.62 -9.15 341.62 -7.02V0H339.51V-6.94Q339.51 -7.8 339.33 -8.45Q339.16 -9.09 338.73 -9.45Q338.31 -9.81 337.58 -9.81Q336.77 -9.81 336.14 -9.33Q335.51 -8.84 335.16 -7.95Q334.8 -7.05 334.8 -5.79V0H332.69V-6.94Q332.69 -7.8 332.51 -8.45Q332.32 -9.09 331.91 -9.45Q331.5 -9.81 330.77 -9.81Q329.96 -9.81 329.32 -9.33Q328.69 -8.85 328.33 -7.96Q327.97 -7.06 327.97 -5.79V0ZM350.41 0V-13.19Q350.41 -14.49 351.03 -15.06Q351.66 -15.62 353.1 -15.62H354.73V-13.95H353.09Q352.78 -13.95 352.65 -13.81Q352.52 -13.68 352.52 -13.36V0ZM348.78 -9.57V-11.25H354.94V-9.57ZM356.98 0V-11.25H358.99V-8.82L358.92 -9.11Q359.43 -10.3 360.42 -10.91Q361.42 -11.51 362.48 -11.51Q362.78 -11.51 363.08 -11.46Q363.39 -11.41 363.66 -11.28L363.42 -9.35Q362.82 -9.54 362.24 -9.54Q361.84 -9.54 361.31 -9.39Q360.77 -9.24 360.27 -8.81Q359.77 -8.39 359.43 -7.56Q359.09 -6.73 359.09 -5.39V0ZM369.97 0.26Q368.34 0.26 367.14 -0.46Q365.93 -1.19 365.26 -2.51Q364.58 -3.82 364.58 -5.62Q364.58 -7.43 365.25 -8.74Q365.92 -10.06 367.11 -10.79Q368.31 -11.51 369.91 -11.51Q370.81 -11.51 371.73 -11.22Q372.65 -10.94 373.41 -10.23Q374.17 -9.52 374.62 -8.29Q375.08 -7.05 375.08 -5.16H365.95V-6.67H373.23L372.77 -6.04Q372.72 -7.42 372.32 -8.26Q371.92 -9.09 371.28 -9.47Q370.64 -9.85 369.86 -9.85Q368.92 -9.85 368.24 -9.35Q367.57 -8.84 367.22 -7.9Q366.86 -6.95 366.86 -5.6Q366.86 -3.62 367.66 -2.53Q368.46 -1.43 369.96 -1.43Q371.02 -1.43 371.75 -1.96Q372.48 -2.5 372.83 -3.53L374.84 -2.92Q374.44 -1.89 373.73 -1.18Q373.02 -0.47 372.06 -0.1Q371.1 0.26 369.97 0.26ZM377.62 0V-11.25H379.74V0ZM378.69 -12.99Q377.99 -12.99 377.53 -13.45Q377.06 -13.92 377.06 -14.6Q377.06 -15.31 377.53 -15.77Q377.99 -16.23 378.69 -16.23Q379.39 -16.23 379.85 -15.77Q380.31 -15.31 380.31 -14.6Q380.31 -13.92 379.85 -13.45Q379.39 -12.99 378.69 -12.99Z"/></svg>
