<svg xmlns="http://www.w3.org/2000/svg" viewBox="0 0 16 16" width="16" height="16" role="img" aria-label="Stundenplanner"><title>Stundenplanner</title><g><path fill="#000000" d="M3 0H13A3 3 0 0 1 16 3V13A3 3 0 0 1 13 16H3A3 3 0 0 1 0 13V3A3 3 0 0 1 3 0ZM2.5 2A0.5 0.5 0 0 0 2 2.5V6.5A0.5 0.5 0 0 0 2.5 7H6.5A0.5 0.5 0 0 0 7 6.5V2.5A0.5 0.5 0 0 0 6.5 2ZM9.5 2A0.5 0.5 0 0 0 9 2.5V6.5A0.5 0.5 0 0 0 9.5 7H13.5A0.5 0.5 0 0 0 14 6.5V2.5A0.5 0.5 0 0 0 13.5 2ZM2.5 9A0.5 0.5 0 0 0 2 9.5V13.5A0.5 0.5 0 0 0 2.5 14H6.5A0.5 0.5 0 0 0 7 13.5V9.5A0.5 0.5 0 0 0 6.5 9ZM9.5 9A0.5 0.5 0 0 0 9 9.5V13.5A0.5 0.5 0 0 0 9.5 14H13.5A0.5 0.5 0 0 0 14 13.5V9.5A0.5 0.5 0 0 0 13.5 9Z"/><path fill="#000000" d="M10.5 3H12.5A0.5 0.5 0 0 1 13 3.5V5.5A0.5 0.5 0 0 1 12.5 6H10.5A0.5 0.5 0 0 1 10 5.5V3.5A0.5 0.5 0 0 1 10.5 3Z"/></g></svg>
